<svg width="36" height="36" viewBox="0 0 36 36" fill="none" xmlns="http://www.w3.org/2000/svg" class=""><path d="M13.406 10.156a3.75 3.75 0 00-3.75 3.75v9.188a3.75 3.75 0 003.75 3.75h9.188a3.75 3.75 0 003.75-3.75V21.78a1.5 1.5 0 013 0v1.313a6.75 6.75 0 01-6.75 6.75h-9.188a6.75 6.75 0 01-6.75-6.75v-9.188a6.75 6.75 0 016.75-6.75h1.313a1.5 1.5 0 010 3h-1.313z" fill="#fff" fill-opacity=".45"></path><path d="M20.438 8.656a1.5 1.5 0 011.5-1.5h5.906a1.5 1.5 0 011.5 1.5v5.906a1.5 1.5 0 11-3 0v-2.285l-8.596 8.596a1.5 1.5 0 11-2.121-2.121l8.595-8.596h-2.284a1.5 1.5 0 01-1.5-1.5z" fill="#fff" fill-opacity=".45"></path></svg>